<svg width="40" height="38" viewBox="0 0 40 38" fill="none" xmlns="http://www.w3.org/2000/svg">
<path d="M33.2933 5.74325C28.9983 1.90658 23.4633 0.149914 17.69 0.796581C8.67662 1.81325 1.30662 9.10158 0.166622 18.1299C-0.635045 24.4732 1.49829 30.6566 6.01996 35.0933C7.49162 36.5382 9.43662 37.3349 11.4966 37.3349H28.515C30.5216 37.3349 32.3766 36.6232 33.74 35.3299C37.7783 31.4966 40.0016 26.3199 40.0016 20.7516C40.0016 15.0249 37.5566 9.55491 33.295 5.74491L33.2933 5.74325ZM32.5916 34.1199C31.54 35.1166 30.0916 35.6666 28.515 35.6666H11.495C9.87329 35.6666 8.34329 35.0399 7.18662 33.9032C3.03829 29.8332 1.08162 24.1599 1.81996 18.3382C2.86662 10.0649 9.61829 3.38325 17.8766 2.45325C18.5983 2.37158 19.3133 2.33158 20.025 2.33158C24.5266 2.33158 28.7816 3.94825 32.1816 6.98658C36.0916 10.4816 38.3333 15.4966 38.3333 20.7499C38.3333 25.8549 36.2933 30.6049 32.5916 34.1199ZM31.8583 24.9599L23.2916 21.1999C23.32 21.0266 23.335 20.8482 23.335 20.6666C23.335 18.8282 21.84 17.3332 20.0016 17.3332C18.1633 17.3332 16.6683 18.8282 16.6683 20.6666C16.6683 22.5049 18.1633 23.9999 20.0016 23.9999C21.0616 23.9999 22.0083 23.5016 22.62 22.7266L31.1883 26.4882C31.2966 26.5349 31.4116 26.5582 31.5233 26.5582C31.8433 26.5582 32.15 26.3732 32.2866 26.0599C32.47 25.6382 32.28 25.1449 31.8583 24.9599ZM20.0016 22.3332C19.0816 22.3332 18.335 21.5866 18.335 20.6666C18.335 19.7466 19.0816 18.9999 20.0016 18.9999C20.9216 18.9999 21.6683 19.7466 21.6683 20.6666C21.6683 21.5866 20.9216 22.3332 20.0016 22.3332ZM32.53 20.6649C32.0816 20.7049 31.6733 20.3482 31.6433 19.8882C31.2433 13.7816 26.1283 8.99992 20.0033 8.99992C13.5716 8.99992 8.33662 14.2349 8.33662 20.6666C8.33662 23.9016 9.69829 27.0199 12.0716 29.2232C12.4083 29.5366 12.43 30.0632 12.115 30.3999C11.9516 30.5766 11.7283 30.6666 11.505 30.6666C11.3016 30.6666 11.0983 30.5932 10.9383 30.4432C8.22496 27.9282 6.66829 24.3649 6.66829 20.6666C6.66829 13.3149 12.65 7.33325 20.0016 7.33325C27.0033 7.33325 32.8466 12.7999 33.305 19.7782C33.335 20.2382 32.99 20.6349 32.53 20.6649Z" fill="url(#paint0_linear_572_2442)"/>
<defs>
<linearGradient id="paint0_linear_572_2442" x1="38.4016" y1="0.665286" x2="3.5293" y2="31.7782" gradientUnits="userSpaceOnUse">
<stop stop-color="#6947F3"/>
<stop offset="1" stop-color="#65B6F3"/>
</linearGradient>
</defs>
</svg>
