<svg width="40" height="40" viewBox="0 0 40 40" fill="none" xmlns="http://www.w3.org/2000/svg">
<g clip-path="url(#clip0_572_659)">
<path d="M40 18.2999C40 15.6965 38.6683 13.2632 36.49 11.8215C36.5067 11.6599 36.515 11.4965 36.515 11.3315C36.515 8.07821 34.39 5.47488 31.5233 5.09155C30.9567 2.20821 28.4033 0.0432129 25.4167 0.0432129C23.1033 0.0432129 21.0817 1.30488 20 3.17821C18.9183 1.30488 16.8967 0.0432129 14.5833 0.0432129C11.5983 0.0432129 9.045 2.20655 8.47667 5.08655C5.62667 5.45155 3.48333 8.06321 3.48333 11.3299C3.48333 11.4965 3.49167 11.6599 3.50833 11.8199C1.33 13.2615 0 15.6949 0 18.2982C0 19.8565 0.47 21.3499 1.36333 22.6549C0.468333 23.9599 0 25.4532 0 27.0116C0 29.7482 1.45167 32.2699 3.815 33.6815C4.85167 37.4449 8.23167 40.0415 12.16 40.0415C15.6167 40.0415 18.6083 38.0082 20.0017 35.0749C21.395 38.0082 24.385 40.0415 27.8433 40.0415C31.7717 40.0415 35.1517 37.4449 36.1883 33.6815C38.55 32.2699 40.0033 29.7482 40.0033 27.0116C40.0033 25.4532 39.5333 23.9599 38.64 22.6549C39.535 21.3499 40.0033 19.8565 40.0033 18.2982L40 18.2999ZM12.1583 38.3765C8.88667 38.3765 6.08333 36.1432 5.34667 32.9465L5.26167 32.5782L4.92833 32.3999C2.91667 31.3232 1.66667 29.2582 1.66667 27.0149C1.66667 25.6282 2.145 24.3032 3.05167 23.1815L3.47333 22.6582L3.05167 22.1349C2.14667 21.0132 1.66667 19.6882 1.66667 18.3015C1.66667 16.1082 2.875 14.0665 4.82 12.9749L5.33667 12.6849C5.33667 12.6849 5.15167 11.5965 5.15167 11.3315C5.15167 9.05988 6.65333 6.71155 9.21 6.71155H9.98167L10.0417 5.94321C10.225 3.57155 12.22 1.71155 14.585 1.71155C17.1133 1.71155 19.1683 3.76655 19.1683 6.29488V15.0015H14.0633C13.6917 13.5649 12.3867 12.5015 10.835 12.5015C8.99667 12.5015 7.50167 13.9965 7.50167 15.8349C7.50167 17.6732 8.99667 19.1682 10.835 19.1682C12.385 19.1682 13.6917 18.1049 14.0633 16.6682H19.1683V26.6682H14.0633C13.6917 25.2315 12.3867 24.1682 10.835 24.1682C8.99667 24.1682 7.50167 25.6632 7.50167 27.5015C7.50167 29.3399 8.99667 30.8349 10.835 30.8349C12.385 30.8349 13.6917 29.7715 14.0633 28.3349H19.1683V31.3699C19.1683 35.2332 16.025 38.3782 12.16 38.3782L12.1583 38.3765ZM12.5 15.8332C12.5 16.7515 11.7517 17.4999 10.8333 17.4999C9.915 17.4999 9.16667 16.7515 9.16667 15.8332C9.16667 14.9149 9.915 14.1665 10.8333 14.1665C11.7517 14.1665 12.5 14.9149 12.5 15.8332ZM12.5 27.4999C12.5 28.4182 11.7517 29.1665 10.8333 29.1665C9.915 29.1665 9.16667 28.4182 9.16667 27.4999C9.16667 26.5815 9.915 25.8332 10.8333 25.8332C11.7517 25.8332 12.5 26.5815 12.5 27.4999ZM36.9483 23.1799C37.8533 24.3015 38.3333 25.6265 38.3333 27.0132C38.3333 29.2582 37.0833 31.3215 35.0717 32.3982L34.7383 32.5765L34.6533 32.9449C33.915 36.1415 31.1133 38.3749 27.8417 38.3749C23.9783 38.3749 20.8333 35.2315 20.8333 31.3665V24.9982H30V19.0599C31.4367 18.6882 32.5 17.3832 32.5 15.8315C32.5 13.9932 31.005 12.4982 29.1667 12.4982C27.3283 12.4982 25.8333 13.9932 25.8333 15.8315C25.8333 17.3815 26.8967 18.6882 28.3333 19.0599V23.3315H20.8333V6.29321C20.8333 3.76488 22.8883 1.70988 25.4167 1.70988C27.7817 1.70988 29.7767 3.56821 29.96 5.94155L30.0617 6.70988H30.8333C33.3467 6.70988 34.8483 9.05988 34.8483 11.3299C34.8483 11.5949 34.665 12.6832 34.665 12.6832L35.18 12.9732C37.125 14.0649 38.3333 16.1065 38.3333 18.2999C38.3333 19.6865 37.855 21.0115 36.9483 22.1332L36.5267 22.6565L36.9483 23.1799ZM29.1667 17.4999C28.2483 17.4999 27.5 16.7515 27.5 15.8332C27.5 14.9149 28.2483 14.1665 29.1667 14.1665C30.085 14.1665 30.8333 14.9149 30.8333 15.8332C30.8333 16.7515 30.085 17.4999 29.1667 17.4999Z" fill="url(#paint0_linear_572_659)"/>
</g>
<defs>
<linearGradient id="paint0_linear_572_659" x1="38.4032" y1="0.0432156" x2="0.877388" y2="30.7393" gradientUnits="userSpaceOnUse">
<stop stop-color="#6947F3"/>
<stop offset="1" stop-color="#65B6F3"/>
</linearGradient>
<clipPath id="clip0_572_659">
<rect width="40" height="40" fill="white"/>
</clipPath>
</defs>
</svg>
