<svg width="40" height="40" viewBox="0 0 40 40" fill="none" xmlns="http://www.w3.org/2000/svg">
<g clip-path="url(#clip0_572_31)">
<path d="M19.9998 39.9151C19.8715 39.9151 19.7448 39.8851 19.6265 39.8268L18.9181 39.4734C15.2615 37.6434 3.32812 30.8218 3.32812 19.8068L3.33146 10.8968C3.33146 7.65844 5.39646 4.79677 8.47146 3.77843L19.7381 0.0417676C19.9081 -0.0148991 20.0931 -0.0148991 20.2615 0.0417676L31.5265 3.77677C34.6015 4.79677 36.6665 7.65844 36.6665 10.8951L36.6615 19.8051C36.6615 32.3018 24.7081 38.0834 21.0448 39.5584L20.3098 39.8534C20.2098 39.8934 20.1031 39.9134 19.9981 39.9134L19.9998 39.9151ZM19.9998 1.71177L8.99646 5.3601C6.60479 6.15343 4.99979 8.37844 4.99979 10.8968L4.99646 19.8068C4.99646 29.8651 16.2231 36.2634 19.6648 37.9834L20.0381 38.1701L20.4248 38.0151C23.8431 36.6401 34.9965 31.2618 34.9965 19.8084L35.0015 10.8984C35.0015 8.3801 33.3948 6.1551 31.0048 5.36177L19.9998 1.71177Z" fill="url(#paint0_linear_572_31)"/>
<path d="M18.3014 25C17.233 25 16.1647 24.5934 15.3514 23.78L10.258 18.9384C9.92471 18.6217 9.91138 18.0934 10.228 17.76C10.5447 17.4284 11.0714 17.4134 11.4064 17.73L16.5147 22.5867C17.5047 23.575 19.0897 23.5767 20.0647 22.6017L29.418 13.5684C29.7514 13.25 30.2797 13.26 30.5964 13.59C30.9164 13.92 30.908 14.4484 30.5764 14.7684L21.2314 23.7917C20.4264 24.5967 19.363 25.0017 18.2997 25.0017L18.3014 25Z" fill="url(#paint1_linear_572_31)"/>
</g>
<defs>
<linearGradient id="paint0_linear_572_31" x1="35.3329" y1="-0.000729757" x2="-0.257943" y2="24.3121" gradientUnits="userSpaceOnUse">
<stop stop-color="#6947F3"/>
<stop offset="1" stop-color="#65B6F3"/>
</linearGradient>
<linearGradient id="paint1_linear_572_31" x1="29.9976" y1="13.3359" x2="19.5872" y2="28.5407" gradientUnits="userSpaceOnUse">
<stop stop-color="#6947F3"/>
<stop offset="1" stop-color="#65B6F3"/>
</linearGradient>
<clipPath id="clip0_572_31">
<rect width="40" height="40" fill="white"/>
</clipPath>
</defs>
</svg>
