<svg width="28" height="28" viewBox="0 0 28 28" fill="none" xmlns="http://www.w3.org/2000/svg">
<g clip-path="url(#clip0_889_2345)">
<path d="M9.91667 9.415C10.1033 9.366 10.2958 9.33217 10.4977 9.33217L17.4895 9.32633H17.4918C17.7018 9.32633 17.9037 9.36367 18.1008 9.41617L15.162 12.355C14.5472 12.9698 13.4727 12.9698 12.8567 12.355L9.9155 9.41383L9.91667 9.415ZM16.8117 14.0058C16.0638 14.7548 15.0687 15.1667 14.0105 15.1667C12.9523 15.1667 11.956 14.7537 11.2082 14.0058L8.25883 11.0553C8.20517 11.2513 8.16783 11.4532 8.16783 11.6655V15.1643C8.16783 15.7885 8.4105 16.3742 8.8515 16.8152C9.2925 17.2562 9.87817 17.4977 10.5012 17.4977L17.493 17.4942C18.7798 17.4942 19.8252 16.4465 19.8252 15.1608V11.6608C19.8252 11.4602 19.7913 11.2653 19.7423 11.0763L16.8117 14.0058ZM28 14C28 21.7198 21.7198 28 14 28C6.28017 28 0 21.7198 0 14C0 6.28017 6.28017 0 14 0C21.7198 0 28 6.28017 28 14ZM22.1585 11.6597C22.1585 10.4125 21.672 9.24 20.79 8.358C19.908 7.47833 18.7367 6.993 17.4918 6.993H17.4872L10.4953 6.99883C7.92517 7.00117 5.83333 9.09417 5.83333 11.6655V15.1643C5.83333 16.4115 6.31867 17.584 7.20067 18.4648C8.08267 19.3457 9.254 19.831 10.5 19.831H10.5035L17.4953 19.8275C20.0667 19.8263 22.1585 17.7322 22.1585 15.1608V11.6597Z" fill="url(#paint0_linear_889_2345)"/>
</g>
<defs>
<linearGradient id="paint0_linear_889_2345" x1="26.88" y1="1.86942e-06" x2="0.611488" y2="21.485" gradientUnits="userSpaceOnUse">
<stop stop-color="#6947F3"/>
<stop offset="1" stop-color="#65B6F3"/>
</linearGradient>
<clipPath id="clip0_889_2345">
<rect width="28" height="28" fill="white"/>
</clipPath>
</defs>
</svg>
