<svg width="28" height="28" viewBox="0 0 28 28" fill="none" xmlns="http://www.w3.org/2000/svg">
<g clip-path="url(#clip0_889_2342)">
<path d="M8.00488 7.18549L18.3602 20.7247H19.9469L9.70938 7.18549H8.00488Z" fill="url(#paint0_linear_889_2342)"/>
<path d="M14 0C6.2685 0 0 6.2685 0 14C0 21.7315 6.2685 28 14 28C21.7315 28 28 21.7315 28 14C28 6.2685 21.7315 0 14 0ZM17.5735 22.4373L13.0585 16.5398L7.8995 22.4373H5.03183L11.7203 14.791L4.66667 5.56267H10.5723L14.6487 10.9538L19.3655 5.56267H22.2297L15.9752 12.7097L23.3333 22.4362L17.5735 22.4373Z" fill="url(#paint1_linear_889_2342)"/>
</g>
<defs>
<linearGradient id="paint0_linear_889_2342" x1="19.4692" y1="7.18549" x2="7.1713" y2="16.0574" gradientUnits="userSpaceOnUse">
<stop stop-color="#6947F3"/>
<stop offset="1" stop-color="#65B6F3"/>
</linearGradient>
<linearGradient id="paint1_linear_889_2342" x1="26.88" y1="1.86942e-06" x2="0.611488" y2="21.485" gradientUnits="userSpaceOnUse">
<stop stop-color="#6947F3"/>
<stop offset="1" stop-color="#65B6F3"/>
</linearGradient>
<clipPath id="clip0_889_2342">
<rect width="28" height="28" fill="white"/>
</clipPath>
</defs>
</svg>
